<svg xmlns="http://www.w3.org/2000/svg" width="1800" height="1100" viewBox="0 0 1800 1100">
  <defs>
    <style>
      text { font-family: -apple-system, BlinkMacSystemFont, "SF Pro Display", Arial, sans-serif; }
      .page { fill: #f5f5f6; }
      .phone { fill: #050506; stroke: #19191d; stroke-width: 10; }
      .glass { fill: #222225; stroke: rgba(255,255,255,.26); stroke-width: 1.5; }
      .glass2 { fill: #2b2b2f; stroke: rgba(255,255,255,.30); stroke-width: 1.5; }
      .white { fill: #fff; }
      .black { fill: #050506; }
      .muted { fill: #aaaab0; }
      .dim { fill: #73737a; }
      .hero { font-size: 42px; font-weight: 950; }
      .title { font-size: 30px; font-weight: 920; }
      .body { font-size: 21px; font-weight: 820; }
      .small { font-size: 16px; font-weight: 760; }
      .tiny { font-size: 13px; font-weight: 760; }
    </style>
    <filter id="shadow" x="-20%" y="-20%" width="140%" height="140%">
      <feDropShadow dx="0" dy="18" stdDeviation="22" flood-color="#000" flood-opacity=".24"/>
    </filter>
    <clipPath id="p1"><rect x="92" y="138" width="320" height="690" rx="52"/></clipPath>
    <clipPath id="p2"><rect x="522" y="138" width="320" height="690" rx="52"/></clipPath>
    <clipPath id="p3"><rect x="952" y="138" width="320" height="690" rx="52"/></clipPath>
    <clipPath id="p4"><rect x="1382" y="138" width="320" height="690" rx="52"/></clipPath>
  </defs>

  <rect class="page" width="1800" height="1100"/>
  <text x="90" y="78" font-size="38" font-weight="950" fill="#08080a">Drafted visual preview</text>
  <text x="90" y="112" font-size="20" font-weight="720" fill="#5e5e66">Static Codex sketch. The real SwiftUI app uses scroll views, adaptive grids, line limits, and scaling.</text>

  <g filter="url(#shadow)">
    <rect class="phone" x="78" y="124" width="348" height="718" rx="66"/>
    <rect class="phone" x="508" y="124" width="348" height="718" rx="66"/>
    <rect class="phone" x="938" y="124" width="348" height="718" rx="66"/>
    <rect class="phone" x="1368" y="124" width="348" height="718" rx="66"/>
  </g>

  <!-- Home -->
  <g clip-path="url(#p1)">
    <rect x="92" y="138" width="320" height="690" fill="#050506"/>
    <rect class="glass" x="207" y="154" width="90" height="28" rx="14"/>
    <circle class="glass" cx="140" cy="208" r="29"/>
    <text x="128" y="217" font-size="24" font-weight="900" class="white">≡</text>
    <text x="124" y="302" class="hero white">Drafted</text>

    <rect class="glass2" x="124" y="338" width="256" height="105" rx="28"/>
    <circle class="glass" cx="172" cy="390" r="32"/>
    <text x="160" y="400" font-size="28" class="white">☻</text>
    <text x="218" y="382" class="title white">Owen</text>
    <text x="218" y="411" class="small muted">Level 7 - 640 XP</text>
    <rect x="218" y="424" width="122" height="7" rx="4" fill="#444449"/>
    <rect x="218" y="424" width="86" height="7" rx="4" class="white"/>

    <rect class="glass2" x="124" y="480" width="256" height="155" rx="34"/>
    <text x="154" y="530" class="hero white">start a</text>
    <text x="154" y="584" class="hero white">new draft</text>
    <circle cx="330" cy="577" r="29" class="white"/>
    <text x="317" y="588" font-size="32" font-weight="950" class="black">→</text>

    <text x="124" y="690" class="title white">Active Drafts</text>
    <rect class="glass" x="124" y="712" width="256" height="76" rx="24"/>
    <circle class="glass" cx="164" cy="750" r="24"/>
    <text x="153" y="759" font-size="23" class="white">🏆</text>
    <text x="204" y="742" class="body white">Sports Icons</text>
    <text x="204" y="768" class="tiny muted">DRAFT-X7K9 - Round 1</text>
  </g>

  <!-- Discover -->
  <g clip-path="url(#p2)">
    <rect x="522" y="138" width="320" height="690" fill="#050506"/>
    <rect class="glass" x="637" y="154" width="90" height="28" rx="14"/>
    <text x="554" y="252" class="hero white">choose</text>
    <text x="554" y="302" class="hero white">the room's</text>
    <text x="554" y="352" class="hero white">obsession</text>
    <rect x="554" y="390" width="105" height="38" rx="19" class="white"/>
    <text x="575" y="415" class="small black">Trending</text>
    <rect x="672" y="390" width="130" height="38" rx="19" class="glass"/>
    <text x="692" y="415" class="small white">Popular</text>

    <rect class="glass2" x="554" y="470" width="118" height="150" rx="28"/>
    <circle class="glass" cx="592" cy="512" r="27"/><text x="581" y="521" font-size="24">🏃</text>
    <text x="579" y="562" class="body white">Sports</text><text x="579" y="589" class="body white">Icons</text>
    <rect class="glass" x="690" y="470" width="118" height="150" rx="28"/>
    <circle class="glass" cx="728" cy="512" r="27"/><text x="717" y="521" font-size="24">🎬</text>
    <text x="714" y="562" class="body white">Movie</text><text x="714" y="589" class="body white">Legends</text>
    <rect class="glass" x="554" y="640" width="118" height="150" rx="28"/>
    <circle class="glass" cx="592" cy="682" r="27"/><text x="581" y="691" font-size="24">🎤</text>
    <text x="579" y="732" class="body white">Music</text><text x="579" y="759" class="body white">Moments</text>
    <rect class="glass" x="690" y="640" width="118" height="150" rx="28"/>
    <circle class="glass" cx="728" cy="682" r="27"/><text x="717" y="691" font-size="24">🎮</text>
    <text x="714" y="732" class="body white">Video</text><text x="714" y="759" class="body white">Games</text>
  </g>

  <!-- Room -->
  <g clip-path="url(#p3)">
    <rect x="952" y="138" width="320" height="690" fill="#050506"/>
    <rect class="glass" x="1067" y="154" width="90" height="28" rx="14"/>
    <rect class="glass2" x="980" y="184" width="264" height="112" rx="28"/>
    <text x="1004" y="225" class="body white">DRAFT-X7K9</text>
    <text x="1004" y="252" class="small muted">Round 1 of 3</text>
    <rect x="1164" y="210" width="62" height="28" rx="14" class="white"/>
    <text x="1178" y="229" class="tiny black">3 lives</text>
    <circle class="glass" cx="1007" cy="277" r="17"/><circle class="glass" cx="1045" cy="277" r="17"/><circle class="glass" cx="1083" cy="277" r="17"/>

    <rect class="glass2" x="980" y="326" width="264" height="100" rx="31"/>
    <circle cx="1027" cy="376" r="28" class="white"/>
    <text x="1014" y="386" font-size="25" class="black">☝</text>
    <text x="1072" y="370" class="title white">your pick</text>
    <text x="1072" y="398" class="small muted">Make it count.</text>

    <rect class="glass" x="980" y="454" width="264" height="48" rx="24"/>
    <text x="1006" y="484" class="small muted">⌕ Search picks</text>
    <text x="980" y="548" class="title white">Draft Board</text>
    <rect class="glass2" x="980" y="572" width="124" height="142" rx="27"/>
    <circle class="glass" cx="1018" cy="613" r="25"/><text x="1008" y="622" font-size="23" class="white">①</text>
    <text x="1002" y="660" class="body white">Prime</text><text x="1002" y="686" class="body white">Serena</text>
    <rect class="glass" x="1120" y="572" width="124" height="142" rx="27"/>
    <circle class="glass" cx="1158" cy="613" r="25"/><text x="1148" y="622" font-size="23" class="white">☾</text>
    <text x="1142" y="660" class="body white">Sleeper</text><text x="1142" y="686" class="body white">Aura</text>
    <rect class="glass2" x="980" y="742" width="264" height="66" rx="28"/>
    <text x="1004" y="783" class="title white">45s</text><text x="1090" y="783" font-size="25">🔥 😮 💀 👏</text>
  </g>

  <!-- Results -->
  <g clip-path="url(#p4)">
    <rect x="1382" y="138" width="320" height="690" fill="#050506"/>
    <rect class="glass" x="1497" y="154" width="90" height="28" rx="14"/>
    <text x="1414" y="228" class="small muted">THE WINNER IS</text>
    <rect class="glass2" x="1414" y="258" width="256" height="222" rx="36"/>
    <circle class="glass" cx="1465" cy="318" r="37"/><text x="1450" y="331" font-size="34" class="white">☻</text>
    <text x="1522" y="314" class="hero white">Owen</text>
    <text x="1522" y="343" class="small muted">Sports Icons</text>
    <text x="1438" y="400" class="body white">Owen wins by taste</text>
    <text x="1438" y="428" class="body white">and timing.</text>
    <text x="1438" y="456" class="tiny muted">The AI judge liked the board control.</text>
    <text x="1414" y="536" class="title white">Team Scores</text>
    <rect class="glass" x="1414" y="560" width="256" height="72" rx="25"/>
    <circle cx="1451" cy="596" r="22" class="white"/><text x="1440" y="603" class="tiny black">#1</text>
    <text x="1492" y="590" class="body white">Owen</text><text x="1492" y="615" class="tiny muted">Premium board.</text>
    <text x="1608" y="608" font-size="31" font-weight="950" class="white">92</text>
    <rect class="glass" x="1414" y="650" width="256" height="72" rx="25"/>
    <circle cx="1451" cy="686" r="22" class="white"/><text x="1440" y="693" class="tiny black">#2</text>
    <text x="1492" y="680" class="body white">Mia</text><text x="1492" y="705" class="tiny muted">One risky reach.</text>
    <text x="1608" y="698" font-size="31" font-weight="950" class="white">87</text>
    <rect x="1414" y="752" width="256" height="52" rx="26" class="white"/>
    <text x="1502" y="785" class="body black">Rematch</text>
  </g>

  <text x="90" y="930" font-size="27" font-weight="920" fill="#08080a">Overlap note</text>
  <text x="90" y="967" font-size="20" font-weight="680" fill="#555">The earlier preview overlapped because it was a quick fixed-position drawing. I tightened the real SwiftUI text/card behavior and redrew this preview with safer spacing.</text>
</svg>
